# xmcd
#
# Track frame offsets:
#	150
#	2809
#	16898
#	39736
#	57651
#	80184
#	95732
#	111286
#	135319
#	156288
#	170731
#	188613
#	205770
#	225724
#	241719
#	259446
#	276136
#	284627
#	299634
#	313681
#	329584
#
# Disc length: 4683 seconds
#
# Revision: 0
# Processed by: cddbd v1.4PL0 Copyright (c) Steve Scherf et al.
# Submitted via: EasyCDDAExtractor 4.6.9.1
#
DISCID=43124915
DTITLE=Alan Jackson - Alan Jackson - Live
DYEAR=2000
DGENRE=Country
TTITLE0=Alan Jackson Show Promo
TTITLE1=Ain't Your Memory Got No Pride Attall
TTITLE2=I Don't Even Know Your Name
TTITLE3=Livin' On Love
TTITLE4=Don't Rock The Jukebox
TTITLE5=Summertime Blues
TTITLE6=Chasin' That Neon Rainbow
TTITLE7=Mercury Blues
TTITLE8=Gone Country
TTITLE9=Seven Bridge Road
TTITLE10=Tall,Tall Trees
TTITLE11=Here In The Real World
TTITLE12=Midnight In Montgomery
TTITLE13=She's Got The Rythym (And I Got The Blues)
TTITLE14=I'll Try
TTITLE15=Dog River Blues
TTITLE16=If I Could Make A Living
TTITLE17=Third Rate Romance
TTITLE18=The Way I Am
TTITLE19=Mind Your Own Busimess
TTITLE20=Chattahoochee
EXTD=
EXTT0=
EXTT1=
EXTT2=
EXTT3=
EXTT4=
EXTT5=
EXTT6=
EXTT7=
EXTT8=
EXTT9=
EXTT10=
EXTT11=
EXTT12=
EXTT13=
EXTT14=
EXTT15=
EXTT16=
EXTT17=
EXTT18=
EXTT19=
EXTT20=
PLAYORDER=
